<?xml version="1.0" encoding="utf-8"?>
<!-- Generator: Adobe Illustrator 26.3.1, SVG Export Plug-In . SVG Version: 6.00 Build 0)  -->
<svg version="1.1" id="Layer_1" xmlns="http://www.w3.org/2000/svg" xmlns:xlink="http://www.w3.org/1999/xlink" x="0px" y="0px"
	 viewBox="0 0 700 700" style="enable-background:new 0 0 700 700;" xml:space="preserve">
<g>
	<path d="M198.8,546h302.4c63.3,0,114.8-51.5,114.8-114.8V128.8C616,65.5,564.5,14,501.2,14H198.8C135.5,14,84,65.5,84,128.8v302.4
		C84,494.5,135.5,546,198.8,546L198.8,546z M214.5,263.2l86.2-86.2c4.5-4.5,10.6-6.7,16.8-6.7c6.2,0,11.8,2.2,16.8,6.7
		c9,9,9,24.1,0,33l-46.5,46.5h181.4c12.9,0,23.5,10.6,23.5,23.5s-10.6,23.5-23.5,23.5h-182l46.5,46.5c9,9,9,24.1,0,33
		c-9,9-24.1,9-33,0l-86.2-86.2C205,287.3,205,272.7,214.5,263.2L214.5,263.2z"/>
</g>
</svg>
