<?xml version="1.0" encoding="UTF-8"?><svg id="Layer_2" xmlns="http://www.w3.org/2000/svg" viewBox="0 0 532 532"><g id="Layer_1-2"><path d="M114.8,532H417.2c63.28,0,114.8-51.52,114.8-114.8V114.8c0-63.28-51.52-114.8-114.8-114.8H114.8C51.52,0,0,51.52,0,114.8V417.2c0,63.28,51.52,114.8,114.8,114.8h0Zm15.68-282.8l86.24-86.24c4.48-4.48,10.64-6.72,16.8-6.72s11.76,2.24,16.8,6.72c8.96,8.96,8.96,24.08,0,33.04l-46.48,46.48h181.44c12.88,0,23.52,10.64,23.52,23.52s-10.64,23.52-23.52,23.52H203.28l46.48,46.48c8.96,8.96,8.96,24.08,0,33.04-8.96,8.96-24.08,8.96-33.04,0l-86.24-86.24c-9.52-9.52-9.52-24.08,0-33.6h0Z"/></g></svg>