<?xml version="1.0" encoding="UTF-8"?><svg id="Layer_2" xmlns="http://www.w3.org/2000/svg" viewBox="0 0 532 532"><g id="Layer_1-2"><path d="M417.2,0H114.8C51.5,0,0,51.5,0,114.8V417.2c0,63.3,51.5,114.8,114.8,114.8H417.2c63.3,0,114.8-51.5,114.8-114.8V114.8c0-63.3-51.5-114.8-114.8-114.8h0Zm-15.7,282.8l-86.2,86.2c-4.5,4.5-10.6,6.7-16.8,6.7s-11.8-2.2-16.8-6.7c-9-9-9-24.1,0-33l46.5-46.5H146.7c-12.9,0-23.5-10.6-23.5-23.5s10.6-23.5,23.5-23.5h181.4l-46.4-46.5c-9-9-9-24.1,0-33,9-9,24.1-9,33,0l86.8,86.2c9.5,9.5,9.5,24.1,0,33.6Z"/></g></svg>