<?xml version="1.0" encoding="utf-8"?>
<!-- Generator: Adobe Illustrator 26.3.1, SVG Export Plug-In . SVG Version: 6.00 Build 0)  -->
<svg version="1.1" id="Layer_1" xmlns="http://www.w3.org/2000/svg" xmlns:xlink="http://www.w3.org/1999/xlink" x="0px" y="0px"
	 viewBox="0 0 700 700" style="enable-background:new 0 0 700 700;" xml:space="preserve">
<g>
	<path d="M501.2,14H198.8C135.5,14,84,65.5,84,128.8v302.4C84,494.5,135.5,546,198.8,546h302.4c63.3,0,114.8-51.5,114.8-114.8V128.8
		C616,65.5,564.5,14,501.2,14L501.2,14z M485.5,296.8L399.3,383c-4.5,4.5-10.6,6.7-16.8,6.7c-6.2,0-11.8-2.2-16.8-6.7
		c-9-9-9-24.1,0-33l46.5-46.5H230.7c-12.9,0-23.5-10.6-23.5-23.5s10.6-23.5,23.5-23.5h181.4L365.7,210c-9-9-9-24.1,0-33
		c9-9,24.1-9,33,0l86.8,86.2C495,272.7,495,287.3,485.5,296.8z"/>
</g>
</svg>
