<?xml version="1.0" encoding="UTF-8"?><svg id="Layer_2" xmlns="http://www.w3.org/2000/svg" viewBox="0 0 532 532"><g id="Layer_1-2"><path d="M417.2,0H114.8C51.52,0,0,51.52,0,114.8V417.2c0,63.28,51.52,114.8,114.8,114.8H417.2c63.28,0,114.8-51.52,114.8-114.8V114.8C532,51.52,480.48,0,417.2,0h0Zm-15.68,282.8l-86.24,86.24c-4.48,4.48-10.64,6.72-16.8,6.72s-11.76-2.24-16.8-6.72c-8.96-8.96-8.96-24.08,0-33.04l46.48-46.48H146.72c-12.88,0-23.52-10.64-23.52-23.52s10.64-23.52,23.52-23.52h181.44l-46.48-46.48c-8.96-8.96-8.96-24.08,0-33.04,8.96-8.96,24.08-8.96,33.04,0l86.8,86.24c9.52,9.52,9.52,24.08,0,33.6Z"/></g></svg>