<?xml version="1.0" encoding="utf-8"?>
<!-- Generator: Adobe Illustrator 26.3.1, SVG Export Plug-In . SVG Version: 6.00 Build 0)  -->
<svg version="1.1" id="Layer_1" xmlns="http://www.w3.org/2000/svg" xmlns:xlink="http://www.w3.org/1999/xlink" x="0px" y="0px"
	 viewBox="0 0 700 700" style="enable-background:new 0 0 700 700;" xml:space="preserve">
<g>
	<path d="M604.2,437.9l-93-93c-13.4-13.4-35.3-14.6-51-4.5l-37.5-37c48.7-72.2,41.4-171.4-22.4-235.2c-72.2-72.2-189.8-72.2-262.1,0
		c-72.2,72.2-72.2,189.8,0,262.1c36.4,36.4,83.4,54.3,131,54.3c36.4,0,72.8-10.6,104.2-31.9l37.5,37.5c-10.6,15.7-9.5,37,4.5,51
		l93,93c7.8,7.8,17.9,11.8,29.1,11.8s21.3-4.5,29.1-11.8l38.1-38.1C619.9,479.9,619.9,453.6,604.2,437.9L604.2,437.9z M180.9,287.8
		c-48.7-48.7-48.7-128.2,0-177c48.7-48.7,128.2-48.7,177,0c48.7,48.7,48.7,128.2,0,177C309.1,336.6,229.6,336.6,180.9,287.8
		L180.9,287.8z"/>
	<path d="M332.6,136.1c-21.8-21.8-53.2-30.8-83.4-24.1c-10.6,2.2-17.4,13.4-15.1,24.1c2.2,10.6,13.4,17.4,24.1,15.1
		c16.8-3.9,33.6,1.1,45.9,12.9c9.5,9.5,14.6,21.8,14.6,34.7c0,11.2,9,20.2,20.2,20.2s20.2-9,20.2-20.2
		C359,175.3,349.4,152.9,332.6,136.1L332.6,136.1z"/>
</g>
</svg>
