<?xml version="1.0" encoding="UTF-8"?><svg id="Layer_2" xmlns="http://www.w3.org/2000/svg" viewBox="0 0 531.93 531.86"><g id="Layer_1-2"><g><path d="M520.1,423.78l-92.96-92.96c-13.44-13.44-35.28-14.56-50.96-4.48l-37.52-36.96c48.72-72.24,41.44-171.36-22.4-235.2C244.03-18.06,126.42-18.06,54.18,54.18c-72.25,72.24-72.25,189.84,0,262.08,36.4,36.4,83.44,54.32,131.04,54.32,36.4,0,72.8-10.64,104.16-31.92l37.52,37.52c-10.64,15.68-9.52,36.96,4.48,50.96l92.96,92.96c7.84,7.84,17.92,11.76,29.12,11.76s21.28-4.48,29.12-11.76l38.08-38.08c15.12-16.24,15.12-42.56-.56-58.24h0ZM96.74,273.7c-48.72-48.72-48.72-128.24,0-176.96,48.72-48.72,128.24-48.72,176.96,0,48.72,48.72,48.72,128.24,0,176.96-48.72,48.72-128.24,48.72-176.96,0h0Z"/><path d="M248.5,121.94c-21.84-21.84-53.2-30.8-83.44-24.08-10.64,2.24-17.36,13.44-15.12,24.08,2.24,10.64,13.44,17.36,24.08,15.12,16.8-3.92,33.6,1.12,45.92,12.88,9.52,9.52,14.56,21.84,14.56,34.72,0,11.2,8.96,20.16,20.16,20.16s20.16-8.96,20.16-20.16c0-23.52-9.52-45.92-26.32-62.72h0Z"/></g></g></svg>