<?xml version="1.0" encoding="UTF-8"?><svg id="Layer_2" xmlns="http://www.w3.org/2000/svg" xmlns:xlink="http://www.w3.org/1999/xlink" viewBox="0 0 43.49 60"><defs><style>.cls-1{fill:url(#linear-gradient);}.cls-2{fill:url(#linear-gradient-2);}</style><linearGradient id="linear-gradient" x1="14.38" y1="158.33" x2="35.46" y2="194.15" gradientTransform="translate(0 203.48) scale(1 -1)" gradientUnits="userSpaceOnUse"><stop offset="0" stop-color="#1fade0"/><stop offset="1" stop-color="#00f193"/></linearGradient><linearGradient id="linear-gradient-2" x1="12.08" y1="159.68" x2="33.16" y2="195.51" xlink:href="#linear-gradient"/></defs><g id="Layer_1-2"><g><path class="cls-1" d="M37.98,36.36c-.38,0-.75-.11-1.07-.32-.32-.21-.56-.51-.71-.87-.14-.35-.18-.74-.1-1.11,.08-.37,.26-.72,.54-.98l2.53-2.5c.26-.35,.43-.76,.48-1.2,.05-.44-.02-.88-.2-1.28-.18-.4-.46-.74-.82-1s-.78-.4-1.22-.44l-25.12-1.96c-.74-.06-1.46-.33-2.05-.78-.6-.45-1.05-1.06-1.32-1.76-.26-.7-.32-1.46-.17-2.19,.15-.73,.51-1.4,1.03-1.94L26.63,.76c.38-.39,.89-.65,1.43-.73,.54-.08,1.1,.02,1.58,.29,.48,.27,.86,.69,1.08,1.19,.22,.5,.27,1.07,.13,1.6l-3.64,14.87c-.12,.49-.43,.92-.87,1.18-.43,.26-.96,.34-1.45,.22-.49-.12-.92-.43-1.18-.87-.26-.43-.34-.96-.22-1.45l2.48-10.12-13.45,13.78s-.03,.03-.03,.05c0,.02,0,.04,0,.05,.02,.06,.05,.06,.08,.06l25.12,1.97c1.14,.09,2.24,.49,3.17,1.16,.93,.67,1.66,1.58,2.11,2.63,.45,1.05,.61,2.21,.45,3.34-.16,1.13-.62,2.2-1.35,3.09l-.14,.16-2.62,2.58c-.36,.35-.84,.55-1.34,.55Z"/><path class="cls-2" d="M15.08,60c-.43,0-.85-.11-1.22-.32-.48-.26-.86-.68-1.09-1.18-.22-.5-.27-1.07-.13-1.6l3.64-14.87c.06-.25,.16-.49,.31-.69,.15-.21,.34-.39,.55-.52,.22-.13,.46-.23,.71-.27,.25-.04,.51-.03,.76,.03,.25,.06,.48,.17,.69,.32s.38,.34,.51,.56c.13,.22,.21,.46,.25,.72,.03,.25,.02,.51-.05,.76l-2.48,10.12,13.44-13.79s.03-.03,.03-.04c0-.02,0-.04,0-.05-.02-.06-.05-.06-.08-.06l-25.12-1.97c-1.14-.09-2.24-.49-3.17-1.16-.93-.67-1.66-1.58-2.11-2.63-.45-1.05-.61-2.21-.45-3.35,.16-1.14,.63-2.21,1.35-3.09l.14-.16,2.62-2.58c.18-.18,.39-.32,.63-.41,.23-.09,.48-.14,.74-.14,.25,0,.5,.05,.73,.15,.23,.1,.44,.24,.62,.42,.18,.18,.32,.39,.41,.63,.09,.23,.14,.48,.14,.74,0,.25-.05,.5-.15,.73-.1,.23-.24,.44-.42,.62l-2.53,2.5c-.26,.35-.43,.77-.48,1.2-.05,.44,.02,.88,.2,1.28,.18,.4,.46,.74,.82,1,.36,.25,.78,.4,1.22,.44l25.12,1.97c.74,.06,1.46,.33,2.05,.78,.6,.45,1.05,1.06,1.32,1.76s.32,1.46,.17,2.19c-.15,.73-.51,1.4-1.03,1.94l-16.85,17.27c-.23,.24-.51,.43-.81,.56-.31,.13-.64,.2-.97,.2Z"/></g></g></svg>