<svg width="164" height="60" viewBox="0 0 164 60" fill="none" xmlns="http://www.w3.org/2000/svg">
<g clip-path="url(#clip0_1_304)">
<path d="M59.6835 38.1159L62.1528 34.5168C63.3074 35.5645 64.6424 36.3943 66.093 36.9657C67.5704 37.5545 69.1471 37.8541 70.7374 37.8483C71.8339 37.8483 72.755 37.6981 73.5009 37.3976C74.2468 37.0972 74.8086 36.7049 75.1862 36.2209C75.5522 35.7729 75.7528 35.2126 75.7543 34.6342C75.75 34.0474 75.5731 33.4749 75.2457 32.988C74.9046 32.4664 74.2969 31.9567 73.4227 31.4591C72.5485 30.9615 71.3138 30.4519 69.7187 29.9303C67.528 29.1729 65.79 28.3827 64.5048 27.5596C63.2195 26.7365 62.2984 25.8284 61.7413 24.8352C61.1833 23.8564 60.8929 22.7478 60.8994 21.6211C60.8882 20.2717 61.2919 18.9514 62.0558 17.8389C62.8257 16.7018 63.9294 15.7869 65.367 15.0942C66.8045 14.4015 68.5034 14.0552 70.4636 14.0552C72.148 14.0666 73.8181 14.3651 75.4022 14.9377C76.9772 15.4733 78.4486 16.2751 79.7524 17.3084L77.3613 20.9154C76.3748 20.0279 75.2431 19.3165 74.0157 18.8122C72.775 18.3016 71.4454 18.0416 70.1037 18.047C68.5618 18.047 67.4143 18.36 66.6611 18.9859C65.9079 19.6119 65.5292 20.3421 65.525 21.1767C65.5268 21.7063 65.6985 22.2213 66.0148 22.6461C66.3403 23.1051 66.9214 23.5563 67.758 23.9996C68.8701 24.5574 70.0237 25.0282 71.2085 25.408C73.5035 26.1382 75.3323 26.9551 76.6947 27.8585C78.0572 28.7619 79.042 29.7378 79.6491 30.7863C80.26 31.8182 80.5786 32.9969 80.5708 34.196C80.5737 35.5718 80.1644 36.917 79.3956 38.058C78.6111 39.2473 77.461 40.1945 75.9452 40.8997C74.4294 41.6049 72.5479 41.9575 70.3009 41.9575C69.007 41.9547 67.7185 41.7901 66.4655 41.4677C65.2 41.1464 63.9716 40.6933 62.8007 40.1157C61.6872 39.5728 60.6411 38.9017 59.6835 38.1159Z" fill="white"/>
<path d="M85.3185 21.183H89.5075L90.2899 25.0951V48.5674L85.9084 49.3498V26.034C85.9084 25.4842 85.8886 24.9813 85.8489 24.5255C85.8093 24.0696 85.7373 23.5532 85.633 22.9763L85.3185 21.183ZM88.5686 32.8253L90.2899 32.5123C90.2899 33.8456 90.4923 34.9409 90.897 35.7984C91.3018 36.656 91.8234 37.2965 92.4619 37.7201C93.0832 38.1322 93.8131 38.3501 94.5587 38.346C96.0484 38.346 97.244 37.7201 98.1453 36.4682C99.0466 35.2163 99.5004 33.5446 99.5067 31.4529C99.5067 29.9924 99.3174 28.7708 98.9387 27.7881C98.56 26.8054 98.0311 26.0673 97.3519 25.5739C96.6824 25.081 95.8705 24.8195 95.0391 24.829C94.0541 24.8333 93.0876 25.0967 92.2365 25.5927C91.2822 26.1484 90.4275 26.8598 89.7078 27.6974V24.5145C90.5195 23.4389 91.5285 22.5277 92.6809 21.8293C93.7897 21.1491 95.0654 20.7899 96.3661 20.7918C97.7404 20.7864 99.0783 21.2335 100.173 22.064C101.321 22.9142 102.242 24.1139 102.937 25.6631C103.632 27.2123 103.978 29.0744 103.976 31.2495C103.976 33.4966 103.616 35.4172 102.898 37.0112C102.179 38.6052 101.188 39.8268 99.9245 40.676C98.657 41.5241 97.1876 41.9487 95.5164 41.9498C94.3134 41.9498 93.1359 41.6026 92.1254 40.9498C91.0676 40.2832 90.2117 39.277 89.5576 37.9313C88.9035 36.5856 88.5738 34.8835 88.5686 32.8253Z" fill="white"/>
<path d="M107.894 36.2741C107.881 35.0905 108.223 33.9302 108.875 32.9426C109.525 31.9495 110.571 31.1399 112.011 30.514C113.452 29.8881 115.333 29.5349 117.656 29.4546L120.516 29.3764V32.193L117.89 32.3918C116.374 32.4961 115.205 32.7246 114.382 33.0772C113.559 33.4298 112.985 33.8413 112.661 34.3118C112.342 34.7578 112.171 35.2924 112.171 35.8406C112.171 36.5996 112.406 37.1927 112.877 37.6245C113.348 38.0564 113.959 38.2708 114.718 38.2708C115.783 38.2658 116.828 37.9895 117.756 37.4681C118.77 36.9043 119.679 36.1682 120.441 35.293V38.2661C119.684 39.335 118.708 40.2306 117.579 40.8935C116.397 41.5993 115.043 41.9654 113.667 41.9513C112.675 41.9578 111.698 41.7152 110.825 41.2455C109.956 40.7877 109.222 40.1087 108.698 39.277C108.147 38.3742 107.868 37.3316 107.894 36.2741ZM108.52 22.7509C109.604 22.143 110.761 21.6755 111.963 21.3598C113.276 20.9873 114.635 20.7962 116 20.7917C117.593 20.7917 119.01 21.0854 120.252 21.6727C121.473 22.2421 122.491 23.1701 123.172 24.3329C123.888 25.5264 124.247 27.013 124.247 28.7927V36.7091C124.247 37.2579 124.266 37.7544 124.304 38.1988C124.343 38.6432 124.415 39.1529 124.52 39.7277L124.833 41.5303H120.64L119.857 37.6105V29.1792C119.857 27.6373 119.479 26.5138 118.721 25.8086C117.964 25.1034 116.879 24.7508 115.468 24.7508C114.469 24.7433 113.475 24.9019 112.528 25.2202C111.624 25.5296 110.746 25.91 109.902 26.3578L108.52 22.7509Z" fill="white"/>
<path d="M130.119 21.183H134.313L135.095 25.1811V41.5257H130.706V26.0433C130.706 25.4935 130.687 24.9907 130.648 24.5348C130.61 24.0789 130.538 23.5625 130.432 22.9856L130.119 21.183ZM134.509 28.2779V25.1811C135.209 23.8841 136.219 22.78 137.449 21.9669C138.649 21.1839 140.054 20.7748 141.486 20.7918V25.3298C139.921 25.383 138.576 25.6438 137.449 26.1122C136.313 26.5938 135.306 27.3356 134.509 28.2779Z" fill="white"/>
<path d="M144.347 31.4528C144.347 29.2057 144.706 27.2852 145.425 25.6911C146.144 24.0971 147.135 22.8817 148.398 22.0451C149.666 21.2105 151.135 20.7932 152.808 20.7932C154.007 20.7903 155.183 21.1219 156.203 21.7509C157.261 22.3925 158.117 23.3835 158.771 24.7241C159.425 26.0646 159.752 27.7828 159.751 29.8786L157.987 30.2307C157.987 28.8453 157.791 27.7285 157.399 26.8804C157.007 26.0323 156.492 25.4006 155.856 24.9854C155.234 24.5737 154.505 24.3559 153.759 24.3595C152.269 24.3595 151.074 24.9854 150.173 26.2372C149.271 27.4891 148.818 29.1624 148.814 31.2572C148.814 32.6937 149.004 33.9085 149.384 34.9017C149.764 35.8948 150.293 36.6459 150.971 37.155C151.635 37.66 152.449 37.9292 153.283 37.9202C154.252 37.9056 155.202 37.6496 156.047 37.1754C157.005 36.6549 157.861 35.9658 158.574 35.1411V38.2379C157.77 39.3078 156.773 40.2184 155.635 40.9231C154.527 41.6098 153.247 41.9684 151.944 41.9575C150.574 41.9601 149.241 41.5132 148.149 40.6853C147.002 39.835 146.081 38.6265 145.386 37.0596C144.691 35.4927 144.345 33.6237 144.347 31.4528ZM157.987 49.3653V25.1028L158.81 21.1907H163.004L162.691 22.9934C162.587 23.5692 162.515 24.0856 162.475 24.5425C162.436 24.9995 162.416 25.5023 162.416 26.051V48.5845L157.987 49.3653Z" fill="white"/>
<path d="M37.9732 36.368C37.592 36.3688 37.2193 36.256 36.9026 36.044C36.5858 35.8319 36.3395 35.5303 36.1951 35.1776C36.0506 34.8248 36.0146 34.4371 36.0916 34.0638C36.1686 33.6905 36.3552 33.3486 36.6274 33.0819L39.1593 30.5782C39.4236 30.228 39.5889 29.8132 39.6378 29.3772C39.6868 28.9412 39.6175 28.5001 39.4373 28.1001C39.2572 27.7001 38.9727 27.3559 38.6138 27.1036C38.2549 26.8513 37.8347 26.7002 37.3973 26.6661L12.2819 24.7022C11.5377 24.6437 10.8256 24.3744 10.229 23.9258C9.63244 23.4771 9.17605 22.8677 8.91331 22.169C8.65058 21.4703 8.59239 20.7112 8.74557 19.9806C8.89875 19.2501 9.25694 18.5783 9.7782 18.0439L26.6298 0.762019C27.0133 0.367805 27.5159 0.110835 28.06 0.0308036C28.6042 -0.0492276 29.1595 0.052133 29.6403 0.319228C30.1211 0.586324 30.5005 1.00429 30.72 1.50857C30.9395 2.01285 30.9869 2.57537 30.8548 3.10925L27.215 17.9751C27.094 18.4689 26.7818 18.8945 26.3471 19.1582C25.9123 19.4219 25.3906 19.502 24.8967 19.3811C24.4029 19.2601 23.9773 18.9479 23.7136 18.5131C23.4499 18.0783 23.3698 17.5566 23.4907 17.0628L25.9694 6.94307L12.5182 20.7198C12.5028 20.7308 12.4921 20.7473 12.4884 20.7659C12.4846 20.7844 12.488 20.8037 12.4979 20.8199C12.5198 20.8763 12.5432 20.8778 12.5792 20.8809L37.6946 22.8558C38.8367 22.9452 39.9325 23.3452 40.8635 24.0127C41.7945 24.6802 42.5251 25.5896 42.9764 26.6425C43.4277 27.6954 43.5823 28.8516 43.4237 29.9861C43.265 31.1206 42.799 32.1901 42.0761 33.0787L41.9353 33.2352L39.3174 35.8172C38.959 36.1702 38.4762 36.368 37.9732 36.368Z" fill="url(#paint0_linear_1_304)"/>
<path d="M15.0751 60C14.6476 59.999 14.2274 59.8886 13.8546 59.6792C13.3715 59.4165 12.9898 59.0003 12.7696 58.4965C12.5494 57.9927 12.5034 57.4299 12.6387 56.8969L16.2785 42.0311C16.3337 41.7818 16.4382 41.5461 16.5858 41.3378C16.7334 41.1294 16.9211 40.9527 17.1379 40.8179C17.3548 40.6831 17.5963 40.5929 17.8485 40.5528C18.1006 40.5126 18.3583 40.5232 18.6062 40.584C18.8542 40.6448 19.0876 40.7545 19.2926 40.9067C19.4976 41.0589 19.6701 41.2505 19.8001 41.4702C19.93 41.69 20.0147 41.9336 20.0493 42.1865C20.0838 42.4395 20.0675 42.6968 20.0012 42.9434L17.5256 53.0662L30.9659 39.277C30.9814 39.2665 30.9924 39.2504 30.9964 39.2321C31.0005 39.2138 30.9974 39.1946 30.9878 39.1784C30.9659 39.1221 30.9424 39.1205 30.9064 39.1174L5.78947 37.1442C4.64631 37.0556 3.54924 36.6557 2.61722 35.9878C1.6852 35.32 0.953803 34.4098 0.502357 33.3558C0.0509112 32.3018 -0.103356 31.1444 0.0562857 30.009C0.215927 28.8736 0.683384 27.8035 1.40796 26.9149L1.5488 26.7584L4.16674 24.1765C4.34655 23.9995 4.55945 23.8598 4.79328 23.7651C5.02711 23.6705 5.27729 23.6228 5.52955 23.6248C5.7818 23.6269 6.03118 23.6786 6.26346 23.777C6.49573 23.8754 6.70635 24.0186 6.88328 24.1984C7.06021 24.3782 7.19999 24.5911 7.29464 24.8249C7.3893 25.0588 7.43697 25.3089 7.43494 25.5612C7.4329 25.8134 7.3812 26.0628 7.28279 26.2951C7.18438 26.5274 7.04118 26.738 6.86137 26.9149L4.32792 29.4186C4.06412 29.7689 3.89928 30.1837 3.85064 30.6195C3.802 31.0553 3.87135 31.4962 4.05143 31.896C4.23152 32.2958 4.51572 32.6399 4.87433 32.8923C5.23293 33.1447 5.65276 33.2961 6.08991 33.3307L31.2069 35.3055C31.9511 35.364 32.6632 35.6333 33.2598 36.082C33.8564 36.5306 34.3128 37.14 34.5755 37.8387C34.8382 38.5374 34.8964 39.2965 34.7432 40.0271C34.59 40.7577 34.2319 41.4295 33.7106 41.9638L16.859 59.2379C16.628 59.4781 16.351 59.6693 16.0445 59.8002C15.738 59.9311 15.4084 59.9991 15.0751 60Z" fill="url(#paint1_linear_1_304)"/>
</g>
<defs>
<linearGradient id="paint0_linear_1_304" x1="14.3756" y1="45.1545" x2="35.4522" y2="9.32629" gradientUnits="userSpaceOnUse">
<stop stop-color="#1FADE0"/>
<stop offset="1" stop-color="#00F193"/>
</linearGradient>
<linearGradient id="paint1_linear_1_304" x1="12.0785" y1="43.8025" x2="33.1535" y2="7.9743" gradientUnits="userSpaceOnUse">
<stop stop-color="#1FADE0"/>
<stop offset="1" stop-color="#00F193"/>
</linearGradient>
<clipPath id="clip0_1_304">
<rect width="163.004" height="60" fill="white"/>
</clipPath>
</defs>
</svg>
